<?xml version="1.0" encoding="utf-8"?>
<!DOCTYPE svg PUBLIC "-//W3C//DTD SVG 20010904//EN" "http://www.w3.org/TR/2001/REC-SVG-20010904/DTD/svg10.dtd">
<svg version="1.0" xmlns="http://www.w3.org/2000/svg" width="135px" height="45px" viewBox="0 0 135 45" preserveAspectRatio="xMidYMid meet">
 <g fill="#000000">
  <path d="M68.4 37.6 c-1.9 -1.9 -3.4 -3 -3.4 -2.5 0 0.5 -1.3 1.5 -3 2.4 -2.7 1.4 -3.3 1.4 -5.9 0 -1.6 -0.8 -3.1 -2 -3.3 -2.6 -0.2 -0.7 -1.7 0.1 -3.6 1.9 -1.8 1.8 -4.3 3.2 -5.6 3.2 -2.9 0 -6.4 -2.8 -6.8 -5.5 -0.2 -1.1 -1.6 -2.6 -3.2 -3.2 -3.6 -1.6 -3.6 -1.6 -3.6 0.2 0 0.9 -1.1 2.7 -2.5 4 -5.3 5.4 -17.7 2 -22.2 -6 -2.9 -5.1 -2.9 -8.9 0 -14.5 2.5 -5 7.2 -8.6 12.4 -9.6 7.2 -1.3 16.3 3.8 16.3 9.2 0 2.6 0 2.6 3.9 -0.9 2.2 -2 5.4 -4.3 7 -5.2 2.8 -1.4 3.4 -1.4 6.1 0 1.6 0.8 3.3 2.3 3.9 3.2 0.8 1.6 1.1 1.5 2.1 -0.9 2.5 -5.3 9.3 -5.8 12 -0.8 1 1.9 1.1 1.9 4.3 0 3.2 -1.9 3.3 -1.9 6.5 0 1.8 1.1 3.2 2.4 3.2 3 0 1.8 1.5 1 3.5 -1.9 2.8 -4.3 5.9 -5.5 9.5 -3.6 3 1.6 4.4 4.2 3.5 6.7 -0.4 0.9 0.4 2.1 1.9 3.2 2.5 1.6 2.6 1.6 2.6 -0.7 0 -6.3 8.9 -12.9 15.2 -11.4 6.7 1.7 12.7 10.4 12.8 18.5 0 5.8 -2.3 9.8 -7 12.2 -6.3 3.2 -10.5 2.5 -16.1 -2.6 -2.6 -2.4 -2.6 -2.4 -3.7 0 -1.2 2.7 -4.9 5 -9.7 6 -4.5 1 -11.5 -2.9 -13.9 -7.7 -1.5 -3.1 -1.6 -4.5 -0.8 -7.8 1 -4 1 -4 -1.1 -2.6 -1.2 0.7 -2.8 1.7 -3.5 2.1 -1 0.6 -0.7 1.6 1.3 4.1 3.7 4.9 4.2 8.8 1.6 11.4 -3.1 3.1 -6.7 2.7 -10.7 -1.3z m-42.6 -17.3 c-4.5 -1.9 -7.6 -1.6 -8.3 0.7 -0.9 2.9 0.4 4.3 3.4 3.7 1.5 -0.3 3.3 -0.2 4.1 0.3 1.1 0.7 1.8 0.3 2.6 -1.3 1.1 -1.9 0.9 -2.3 -1.8 -3.4z"/>
 </g>
 <g fill="#ffdd00">
  <path d="M68.9 32.8 c-1.7 -2.4 -3.3 -4.9 -3.6 -5.5 -1 -2.4 -2 -1.3 -2.7 2.6 -0.6 3.9 -2.4 5.5 -5.1 4.5 -2 -0.8 -1.9 -2.9 0.6 -13.2 2.3 -9.4 3.8 -11.8 6.5 -10.8 1.3 0.5 1.5 1.5 1.1 4.6 -0.3 2.2 -0.3 4 0 4 0.2 0 2.4 -1.3 4.8 -3 4.3 -3 7.9 -3.8 8.9 -2.1 1.1 1.8 -0.6 3.9 -5 6.2 -4 2.2 -5.5 4.2 -3.6 5.1 1.7 0.7 6.2 7.8 6.2 9.7 0 1.6 -0.6 2.1 -2.5 2.1 -1.8 0 -3.4 -1.2 -5.6 -4.2z"/>
  <path d="M41.2 35.1 c-0.8 -0.5 -1.1 -1.7 -0.7 -3.3 0.6 -2.3 0.3 -2.6 -2.7 -3.2 -1.9 -0.3 -4.3 -1.3 -5.4 -2.1 -1.8 -1.5 -1.7 -1.7 3.1 -6.1 8.4 -7.6 12 -9.7 14.4 -8.4 2.5 1.3 2.7 4.7 0.6 10.5 -0.9 2.4 -1.1 4.1 -0.5 4.3 1.8 0.6 1.1 4.4 -1 4.9 -1 0.3 -2.2 1.4 -2.5 2.4 -0.7 2 -3.1 2.5 -5.3 1z m2.8 -12 c1.8 -3.5 1.1 -4.5 -1.5 -2.1 -1.4 1.3 -2.5 2.7 -2.5 3.2 0 1.6 2.9 0.8 4 -1.1z"/>
  <path d="M89.1 34.3 c-2.1 -1.1 -3.9 -2.9 -4.4 -4.7 -2 -6.2 5.3 -20.7 9.6 -19.1 2.1 0.9 2.2 2.5 0.2 5.1 -2 2.7 -1.9 3.4 0.8 3.4 5.3 0 9.4 5.7 7.6 10.7 -1.8 5.2 -8.3 7.4 -13.8 4.6z m7.4 -5.3 c1.1 -1.8 -0.6 -5 -2.6 -5 -2.2 0 -3.4 2.2 -2.5 4.5 0.6 1.7 4.2 2 5.1 0.5z"/>
  <path d="M12.8 32.4 c-5.3 -2.8 -7.1 -9.4 -4.4 -15.9 2.7 -6.4 10.7 -9.1 17.6 -6 4.2 1.9 5.3 3.4 4 5.6 -0.7 1.1 -1.5 1.1 -4.3 0.1 -5.8 -2.1 -8.5 -1.6 -10.7 2.1 -2.6 4.2 -2.5 5.3 0.6 8.4 2 1.9 3.2 2.4 5.4 1.9 3.7 -0.7 6.7 1.8 4.9 4 -1.5 1.9 -9.6 1.7 -13.1 -0.2z"/>
  <path d="M112.8 31.7 c-3.4 -2.8 -4.8 -6.4 -4.8 -12.7 0 -6.1 2.2 -8.9 7.5 -9.7 6.9 -0.9 12.5 5.6 12.5 14.6 0 5.3 -0.7 6.9 -4.1 8.6 -4 2.1 -8 1.8 -11.1 -0.8z m8 -3.9 c1.6 -1.6 1.5 -4.8 -0.3 -9.1 -1.7 -4.1 -2.7 -4.9 -4.9 -4.1 -2.3 0.9 -2 7.2 0.4 11.2 2.1 3.5 3 3.8 4.8 2z"/>
 </g>
</svg>